<svg xmlns="http://www.w3.org/2000/svg" width="37" height="37" viewBox="0 0 37 37" fill="none"><rect width="36.8421" height="36.8421" fill="black"></rect><path d="M18.4211 8.84211C14.7599 8.84211 11.7896 11.6693 11.7896 15.1513C11.7896 19.1579 16.2106 25.5072 17.834 27.7002C17.9013 27.7928 17.9897 27.8681 18.0917 27.92C18.1937 27.972 18.3066 27.9991 18.4211 27.9991C18.5356 27.9991 18.6485 27.972 18.7506 27.92C18.8526 27.8681 18.9409 27.7928 19.0083 27.7002C20.6317 25.5081 25.0527 19.1611 25.0527 15.1513C25.0527 11.6693 22.0823 8.84211 18.4211 8.84211Z" stroke="white" stroke-width="1.5" stroke-linecap="round" stroke-linejoin="round"></path><path d="M18.4211 17.6842C19.642 17.6842 20.6317 16.6945 20.6317 15.4737C20.6317 14.2528 19.642 13.2632 18.4211 13.2632C17.2003 13.2632 16.2106 14.2528 16.2106 15.4737C16.2106 16.6945 17.2003 17.6842 18.4211 17.6842Z" stroke="white" stroke-width="1.5" stroke-linecap="round" stroke-linejoin="round"></path></svg>