<svg xmlns="http://www.w3.org/2000/svg" width="37" height="37" viewBox="0 0 37 37" fill="none"><rect width="36.8421" height="36.8421" fill="black"></rect><path d="M27.4018 23.8547C26.6704 23.1179 24.8993 22.0425 24.0399 21.6092C22.9208 21.0455 22.8287 20.9995 21.9491 21.6529C21.3624 22.0891 20.9724 22.4787 20.2857 22.3322C19.5991 22.1858 18.107 21.36 16.8004 20.0577C15.4939 18.7553 14.6203 17.2199 14.4734 16.5356C14.3265 15.8512 14.7225 15.4658 15.1545 14.8777C15.7633 14.0487 15.7173 13.9106 15.1969 12.7915C14.7912 11.9211 13.6845 10.1665 12.9449 9.43887C12.1537 8.65735 12.1537 8.79551 11.6439 9.00735C11.2289 9.18198 10.8307 9.39425 10.4544 9.6415C9.71755 10.131 9.3086 10.5377 9.02261 11.1488C8.73663 11.7599 8.60814 13.1926 10.085 15.8756C11.562 18.5587 12.5981 19.9306 14.7428 22.0693C16.8875 24.2079 18.5366 25.3579 20.9475 26.71C23.9299 28.3803 25.0738 28.0547 25.6868 27.7692C26.2997 27.4837 26.7082 27.0784 27.1987 26.3416C27.4466 25.9659 27.6593 25.5681 27.8342 25.1534C28.0465 24.6454 28.1847 24.6454 27.4018 23.8547Z" stroke="white" stroke-width="1.5" stroke-miterlimit="10"></path></svg>